<svg xmlns="http://www.w3.org/2000/svg" version="1.1" xmlns:xlink="http://www.w3.org/1999/xlink" xmlns:svgjs="http://svgjs.dev/svgjs" viewBox="0 0 1422 800"><circle r="22" cx="296" cy="121" stroke-width="2" stroke="hsl(309, 50%, 50%)" fill="none" opacity="0.13"></circle><circle r="29.5" cx="1273" cy="310" stroke-width="2" stroke="hsl(238, 50%, 50%)" fill="none" opacity="0.64"></circle><circle r="32.5" cx="154" cy="134" stroke-width="2" stroke="hsl(336, 50%, 50%)" fill="none" opacity="0.35"></circle><circle r="19.5" cx="1058" cy="744" stroke-width="2" stroke="hsl(180, 50%, 50%)" fill="none" opacity="0.53"></circle><circle r="17" cx="938" cy="163" stroke-width="2" stroke="hsl(231, 50%, 50%)" fill="none" opacity="0.21"></circle><circle r="28" cx="326" cy="337" fill="hsl(278, 50%, 50%)" opacity="0.11"></circle><circle r="17.5" cx="1128" cy="37" fill="hsl(230, 50%, 50%)" opacity="0.41"></circle><circle r="20.5" cx="94" cy="286" stroke-width="2" stroke="hsl(331, 50%, 50%)" fill="none" opacity="0.98"></circle><circle r="19.5" cx="1184" cy="75" stroke-width="2" stroke="hsl(228, 50%, 50%)" fill="none" opacity="0.48"></circle><circle r="22.5" cx="1053" cy="46" fill="hsl(237, 50%, 50%)" opacity="0.27"></circle><circle r="20.5" cx="378" cy="193" fill="hsl(240, 50%, 50%)" opacity="0.66"></circle><circle r="13.5" cx="227" cy="21" stroke-width="2" stroke="hsl(297, 50%, 50%)" fill="none" opacity="0.14"></circle><circle r="26" cx="1383" cy="612" stroke-width="2" stroke="hsl(305, 50%, 50%)" fill="none" opacity="0.68"></circle><circle r="21.5" cx="249" cy="248" stroke-width="2" stroke="hsl(315, 50%, 50%)" fill="none" opacity="0.78"></circle><circle r="21" cx="235" cy="309" fill="hsl(324, 50%, 50%)" opacity="0.63"></circle><circle r="18" cx="621" cy="735" stroke-width="2" stroke="hsl(234, 50%, 50%)" fill="none" opacity="0.12"></circle><circle r="23" cx="905" cy="226" fill="hsl(241, 50%, 50%)" opacity="0.67"></circle><circle r="12" cx="907" cy="686" fill="hsl(241, 50%, 50%)" opacity="0.64"></circle><circle r="27.5" cx="881" cy="456" stroke-width="2" stroke="hsl(250, 50%, 50%)" fill="none" opacity="0.80"></circle><circle r="17" cx="1241" cy="52" fill="hsl(236, 50%, 50%)" opacity="0.26"></circle><circle r="15" cx="858" cy="764" stroke-width="2" stroke="hsl(258, 50%, 50%)" fill="none" opacity="0.92"></circle><circle r="19" cx="1117" cy="436" stroke-width="2" stroke="hsl(176, 50%, 50%)" fill="none" opacity="0.36"></circle><circle r="15" cx="608" cy="392" stroke-width="2" stroke="hsl(234, 50%, 50%)" fill="none" opacity="0.90"></circle><circle r="14.5" cx="977" cy="23" stroke-width="2" stroke="hsl(264, 50%, 50%)" fill="none" opacity="0.37"></circle><circle r="12" cx="662" cy="189" fill="hsl(249, 50%, 50%)" opacity="0.18"></circle><circle r="15.5" cx="1288" cy="29" fill="hsl(238, 50%, 50%)" opacity="0.17"></circle><circle r="36.5" cx="151" cy="552" fill="hsl(339, 50%, 50%)" opacity="0.88"></circle><circle r="19.5" cx="485" cy="420" stroke-width="2" stroke="hsl(212, 50%, 50%)" fill="none" opacity="0.17"></circle><circle r="23" cx="998" cy="124" fill="hsl(234, 50%, 50%)" opacity="0.23"></circle><circle r="28" cx="1329" cy="392" fill="hsl(266, 50%, 50%)" opacity="0.97"></circle><circle r="23.5" cx="750" cy="748" stroke-width="2" stroke="hsl(270, 50%, 50%)" fill="none" opacity="0.46"></circle><circle r="22.5" cx="327" cy="256" fill="hsl(278, 50%, 50%)" opacity="0.50"></circle><circle r="16" cx="993" cy="648" fill="hsl(202, 50%, 50%)" opacity="0.87"></circle><circle r="22" cx="502" cy="495" stroke-width="2" stroke="hsl(211, 50%, 50%)" fill="none" opacity="0.16"></circle><circle r="26" cx="1378" cy="318" fill="hsl(305, 50%, 50%)" opacity="0.81"></circle><circle r="13.5" cx="1340" cy="25" fill="hsl(247, 50%, 50%)" opacity="0.10"></circle><circle r="17.5" cx="1143" cy="189" fill="hsl(179, 50%, 50%)" opacity="0.95"></circle><circle r="27.5" cx="797" cy="60" fill="hsl(297, 50%, 50%)" opacity="0.95"></circle><circle r="16" cx="22" cy="458" stroke-width="2" stroke="hsl(289, 50%, 50%)" fill="none" opacity="0.49"></circle></svg>